<?xml version="1.0" encoding="utf-8"?>
<svg version="1.1" id="Layer_1" xmlns="http://www.w3.org/2000/svg" xmlns:xlink="http://www.w3.org/1999/xlink" x="0px" y="0px"
     viewBox="0 0 170.1 170.1" style="enable-background:new 0 0 170.1 170.1;" xml:space="preserve">
<style type="text/css">
    .st0{fill:none;stroke:#000000;stroke-width:10;stroke-miterlimit:10;} 
</style>
<g>
    <path class="st0" d="M140.3,132H57.7c-3.1,0-5.7-2.5-5.7-5.7V43.8c0-3.1,2.5-5.7,5.7-5.7h82.6c3.1,0,5.7,2.5,5.7,5.7v82.6
        C146,129.5,143.4,132,140.3,132z"/>
    <path class="st0" d="M74.4,113H29.8c-3.1,0-5.7-2.5-5.7-5.7V62.7c0-3.1,2.5-5.7,5.7-5.7h44.6c3.1,0,5.7,2.5,5.7,5.7v44.6
        C80.1,110.5,77.5,113,74.4,113z"/>
</g>
</svg>
